/* XPM */
static char *x[] = {
/* columns rows colors chars-per-pixel */
"32 32 221 2 ",
"   c black",
".  c gray4",
"X  c #1D140E",
"o  c #583E2A",
"O  c #483A31",
"+  c #735033",
"@  c #7C5533",
"#  c #79583D",
"$  c #494949",
"%  c #5F5651",
"&  c #5F5F5F",
"*  c #67594D",
"=  c #6F6F6F",
"-  c #C52F3D",
";  c #C9303E",
":  c #815734",
">  c #865A36",
",  c #8B5D37",
"<  c #8F6038",
"1  c #93613A",
"2  c #C53845",
"3  c #CF3946",
"4  c #B64B56",
"5  c #B74A5A",
"6  c #B35565",
"7  c #B65F6C",
"8  c #B46A74",
"9  c #B56E79",
"0  c #B2737F",
"q  c #D2414E",
"w  c #C84550",
"e  c #CD4D58",
"r  c #D44955",
"t  c #C1525D",
"y  c #C8525C",
"u  c #D6505C",
"i  c #D35D67",
"p  c #D95863",
"a  c #D95F6A",
"s  c #D4636E",
"d  c #DB606B",
"f  c #C16D75",
"g  c #DB6771",
"h  c #3C6F9C",
"j  c #3E709C",
"k  c #3770A5",
"l  c #3B74A4",
"z  c #3575AE",
"x  c #347CB7",
"c  c #3C7CB5",
"v  c #307ABC",
"b  c #4F6A83",
"n  c #4B7494",
"m  c #45719A",
"M  c #4276A3",
"N  c #4678A3",
"B  c #4C7CA5",
"V  c #427CAF",
"C  c #507FA6",
"Z  c #437EB2",
"A  c #1678CC",
"S  c #177DD4",
"D  c #197FD5",
"F  c #2077C1",
"G  c #267FCB",
"H  c #B57A85",
"J  c #3E81B9",
"K  c #5180A7",
"L  c #5480A8",
"P  c #4484BB",
"I  c #4C8ABF",
"U  c #5889B2",
"Y  c #5E91B9",
"T  c #6292BC",
"R  c #709ABD",
"E  c #1D81D6",
"W  c #3781C2",
"Q  c #3B84C6",
"!  c #3085CF",
"~  c #3E88C9",
"^  c #2283D7",
"/  c #2985D5",
"(  c #2585D8",
")  c #2987D9",
"_  c #2D8ADA",
"`  c #388FD7",
"'  c #338EDB",
"]  c #388FD9",
"[  c #3790DC",
"{  c #3C92DD",
"}  c #3F95E0",
"|  c #3E99E4",
" . c #4086C0",
".. c #4589C4",
"X. c #4A8BC1",
"o. c #448CCA",
"O. c #4390CE",
"+. c #4F92CE",
"@. c #5795C7",
"#. c #5192CC",
"$. c #5899CD",
"%. c #4391D5",
"&. c #4C93D2",
"*. c #4395DC",
"=. c #5597D3",
"-. c #559AD5",
";. c #5C9DD3",
":. c #569DDA",
">. c #599ED9",
",. c #689CC7",
"<. c #679CCA",
"1. c #779FC4",
"2. c #5AA0DB",
"3. c #6EA5D6",
"4. c #6CA7D9",
"5. c #69A8DD",
"6. c #73ABDC",
"7. c #77B0DC",
"8. c #7AB1D9",
"9. c #4297E0",
"0. c #459AE2",
"q. c #4B9CE2",
"w. c #509FE3",
"e. c #4FA2E6",
"r. c #4CA2E9",
"t. c #55A1E4",
"y. c #5CA5E6",
"u. c #54A5E9",
"i. c #5EA7E8",
"p. c #5DAAEA",
"a. c #50A7F0",
"s. c #54AAF1",
"d. c #5FAFF0",
"f. c #60A7E4",
"g. c #65A9E5",
"h. c #69A9E2",
"j. c #64ABE9",
"k. c #6BAEEB",
"l. c #6DB0EC",
"z. c #73B3EC",
"x. c #7BB7EE",
"c. c #7AB9EF",
"v. c #63AEF0",
"b. c #64B2F2",
"n. c #6CB5F2",
"m. c #71B7F5",
"M. c #74BAF3",
"N. c #79BBF4",
"B. c gray53",
"V. c gray58",
"C. c #989898",
"Z. c #AC848F",
"A. c #B2808D",
"S. c #AF8593",
"D. c #AC8B9B",
"F. c #AF9EA9",
"G. c gray64",
"H. c #B9AFB9",
"J. c #B2B2B2",
"K. c #BAB4BC",
"L. c gray74",
"P. c #E1828B",
"I. c #E58E95",
"U. c #E6949C",
"Y. c #E99CA3",
"T. c #C6BDB5",
"R. c #9BB7CE",
"E. c #88B3D5",
"W. c #95BEDE",
"Q. c #84B7E3",
"!. c #83B8E3",
"~. c #8CBCE3",
"^. c #84BDE9",
"/. c #8BBEEA",
"(. c #82BFF4",
"). c #9FC1DF",
"_. c #ADC7DE",
"`. c #B9CEDF",
"'. c #8BC1EF",
"]. c #94C3EC",
"[. c #98C5EA",
"{. c #97C9EB",
"}. c #84C1F1",
"|. c #8BC3F3",
" X c #92C7F3",
".X c #96CAF5",
"XX c #9BCCF4",
"oX c #A3C6E2",
"OX c #AACEE8",
"+X c #B1D0E8",
"@X c #A1CEF3",
"#X c #A5D1F4",
"$X c #ABD4F4",
"%X c #A4D5F9",
"&X c #ADD6FB",
"*X c #B6DBFB",
"=X c #BDDEF9",
"-X c #D4C5C3",
";X c #CECFD8",
":X c #D0CDD3",
">X c #CDD0D7",
",X c #DFDBD8",
"<X c #F3C8CC",
"1X c #E5DEDC",
"2X c #CEDBE7",
"3X c #D7DDE2",
"4X c #C1DDF2",
"5X c #D7E3ED",
"6X c #C3E2FA",
"7X c #CBE4F8",
"8X c #D2E6F7",
"9X c #D4E9FA",
"0X c #DAEDFA",
"qX c #E2E6EA",
"wX c #EBE9EA",
"eX c #EBEEF2",
"rX c #EEF1F3",
"tX c #F2F3F6",
"yX c #F7F9FB",
"uX c #FEFDFD",
"iX c None",
/* pixels */
"iXiXiXiXiXiXiXiXiXiXiXiXiXiXiXiXiXiXiXiXiXiXiXiXiXiXiXiXiXiXiXiX",
"iXiXiXiXiXiXiXiXiXiXiXiXiXiXiXiXiXiXiXiXiXiXiXiXiXiXiXiXiXiXiXiX",
"iXiXiX6.x.x.x.x.x.c.x.x.c.c.x.c.c.x.c.c.x.x.x.x.c.x.x.x.6.iXiXiX",
"iXiX3.k.k.k.k.l.l.l.l.l.l.l.l.l.l.l.l.l.l.l.l.k.l.l.l.k.k.3.iXiX",
"iXiXz.j.v.j.k.k.k.k.k.l.l.k.l.k.l.l.l.l.l.l.k.k.l.j.j.j.v.z.iXiX",
"iXiXl.j.j.k.j.k.k.k.k.l.l.l.k.l.l.l.l.l.k.k.k.k.k.j.k.j.j.l.iXiX",
"iXiXk.j.j.j.j.l.k.k.k.k.h.k.k.k.k.k.k.g.k.k.k.k.k.j.j.j.j.l.iXiX",
"iXiXk.i.i.j.k.j.k.k.-.$.3.>.k.k.k.k.-.>.=.>.k.k.k.k.j.j.i.k.iXiX",
"iXiXk.y.i.j.j.j.2.o.x.|..XQ.=.g.k.%.i.N.}.x.#.y.j.j.j.y.y.j.iXiX",
"iXiXj.t.y.y.y.o.:.N.(.|..X@X[.#.o.p.m.N.N.|. X6.+.y.f.y.t.j.iXiX",
"iXiXi.w.y.y.W v.m.N.(.|..X@X#X].h.n.m.N.}.|. X.XXXX.y.t.w.j.iXiX",
"iXiXi.w.w.t.=...z.N.(.|.{.].OX0X&X].z.N.}.|. X.X@.=.t.w.w.i.iXiX",
"iXiXt.q.t.t.y.=. .z.(.'.~.6X7X0X&X*X=X~.}.|.'.X.-.t.t.w.q.y.iXiX",
"iXiXt.q.q.q.w.w.:.Z 5.@X=X6X9X0X&X*X6X7X4X!.P :.w.w.w.q.q.t.iXiX",
"iXiXw.0.q.q.w.w.%.O.s.m.*X6X9X0X&X*X=X6X}.c.$.&.w.w.q.0.0.t.iXiX",
"iXiXq.0.0.q.q.Q *.n.s.a.n.$X9X0X&X*X|.p.v.c.XX7...w.q.0.9.q.iXiX",
"iXiX0.} 9.*.v | s.b.s.a.d.z..X+X/.r.r.u.d.c..X%X{.X.*.*.9.q.iXiX",
"iXiX0.{ { *.z ` s.b.s.a.d.n.(.$Xr.| 0.u.j.c..X%X8.J { } { 0.iXiX",
"iXiX0.[ { { %.Z x d.s.a.b.M.@X0X|.p.r.u.j.M.^.Y 1.;.%.{ { 9.iXiX",
"iXiX{ ' { { { { ..l u.s.n.XX7X0X XXXc.j.k.oXeXuXuXuXyX).] { iXiX",
"iXiX{ ' ' ' [ } { ~ ,.|.XX4X7X9X XXX$X].2XuXH.A.f H F.tX5X%.iXiX",
"iXiX[ _ _ ' ' [ ] ] c U $X=X7X0X XXX#X`.uXZ.s g <XI.g 9 eX_.iXiX",
"iXiX' ) ) ' ' ' ' ' ] Q m ).7X9X XXXE.rXH.i a a uXY.d d S.uXiXiX",
"iXiX) ) ) ) ) _ _ _ _ ) ! k R 8X.XT B uXH p p p uXU.p p y tXC.iX",
"iXiX) E ^ ) ^ ) ) ) ) ) ) / v m j v ,.uXt u u u uXI.u u e ;XL.iX",
"iXiX) E E E E ^ ^ ^ ^ ^ ^ ^ ^ G G ^ X.uX7 r r r uXI.r r w qXG.iX",
"iXiX^ S D D E D E E E E E E E E E E F uXD.q q q P.p q q 6 uX= iX",
"iXiXh S S S S S S S S S S S S D S S A R.rX5 3 3 yXP.3 2 ;X3XiXiX",
"iXiXO b M M M N N B B C C K L L L K C n qXwX8 - ; - 4 :XuX% iXiX",
"iXiXX o + @ @ @ : > > , , < 1 1 1 1 < , # T.uXwX-X1XuX,X* X iXiX",
"iXiXiXiX                                    $ B.J.V.& . iXiXiXiX",
"iXiXiXiXiXiXiXiXiXiXiXiXiXiXiXiXiXiXiXiXiXiXiXiXiXiXiXiXiXiXiXiX"
};
