/* XPM */
static char *x[] = {
/* columns rows colors chars-per-pixel */
"48 48 256 2 ",
"   c #000000",
".  c #291D13",
"X  c #251A11",
"o  c #463528",
"O  c #583E2A",
"+  c #62442D",
"@  c #744F2F",
"#  c #74502F",
"$  c #6C4E34",
"%  c #724F33",
"&  c #775131",
"*  c #7B5332",
"=  c gray28",
"-  c gray33",
";  c #5F5F5F",
":  c #6B5A4E",
">  c #465D70",
",  c #4C6273",
"<  c #C6323E",
"1  c #CB323F",
"2  c #815733",
"3  c #855935",
"4  c #8A5C36",
"5  c #8E5F38",
"6  c #936139",
"7  c #BE3541",
"8  c #B83D45",
"9  c #CC3542",
"0  c #CF3845",
"q  c #CC3D4A",
"w  c #D13D4A",
"e  c #B54049",
"r  c #B24A57",
"t  c #AE505F",
"y  c #B7525D",
"u  c #AD5B69",
"i  c #BB5963",
"p  c #8A7462",
"a  c #AE626D",
"s  c #B5686A",
"d  c #AD6975",
"f  c #AC6E7B",
"g  c #AE6772",
"h  c #B06772",
"j  c #CB404C",
"k  c #D2424F",
"l  c #D34753",
"z  c #D54C59",
"x  c #D44955",
"c  c #D7525D",
"v  c #CE5761",
"b  c #C05862",
"n  c #D45660",
"m  c #D85762",
"M  c #DA5C67",
"N  c #D65F6A",
"B  c #CF636E",
"V  c #DA626C",
"C  c #D2656F",
"Z  c #DD6671",
"A  c #DC6A74",
"S  c #DF707A",
"D  c #35618B",
"F  c #376792",
"G  c #3B6D9B",
"H  c #336D9F",
"J  c #136CB6",
"K  c #2E6FA6",
"L  c #326EA5",
"P  c #2470AD",
"I  c #3E74A4",
"U  c #3676AF",
"Y  c #3678AF",
"T  c #3C77AC",
"R  c #2D79BA",
"E  c #2778BA",
"W  c #397DB5",
"Q  c #327BB9",
"!  c #3A7EBA",
"~  c #3479B3",
"^  c #417199",
"/  c #4072A0",
"(  c #4A7AA4",
")  c #457EB1",
"_  c #1E7BC8",
"`  c #167DD3",
"'  c #1A7FD5",
"]  c #2C7DC5",
"[  c #2478C1",
"{  c #AC7684",
"}  c #3A81BC",
"|  c #5D89AD",
" . c #4681B3",
".. c #4684BA",
"X. c #4A8ABF",
"o. c #598DB8",
"O. c #5E90BB",
"+. c #6A90B2",
"@. c #1D81D6",
"#. c #2580CE",
"$. c #3D85C3",
"%. c #3A86C9",
"&. c #3886C8",
"*. c #2284D6",
"=. c #2A85D5",
"-. c #2D88D7",
";. c #2686D8",
":. c #2887D8",
">. c #2C89D9",
",. c #3087D1",
"<. c #3D8FD6",
"1. c #338DDA",
"2. c #388FDA",
"3. c #328AD4",
"4. c #3790DD",
"5. c #3B92DD",
"6. c #3996E5",
"7. c #3F9BE7",
"8. c #4385C1",
"9. c #4489C5",
"0. c #4A8DC5",
"q. c #448CCC",
"w. c #4A8ECB",
"e. c #4B91CD",
"r. c #4E91C7",
"t. c #5494CD",
"y. c #5995C7",
"u. c #418FD4",
"i. c #4492D4",
"p. c #4295DD",
"a. c #4C97D9",
"s. c #4698DF",
"d. c #4D9ADD",
"f. c #5499D6",
"g. c #549DDC",
"h. c #5A9EDC",
"j. c #589BD5",
"k. c #609CCD",
"l. c #759DC4",
"z. c #5CA1DD",
"x. c #76A3C8",
"c. c #67A6DA",
"v. c #77ABDA",
"b. c #74A8D0",
"n. c #79B0DC",
"m. c #4296E0",
"M. c #4599E3",
"N. c #4C9CE3",
"B. c #519FE4",
"V. c #4DA1E7",
"C. c #4AA3ED",
"Z. c #54A1E5",
"A. c #5AA4E6",
"S. c #5FA8E6",
"D. c #55A6E9",
"F. c #5DA6E8",
"G. c #5EA8E9",
"H. c #57A8EA",
"J. c #48A3F0",
"K. c #50A7F1",
"L. c #53A9F0",
"P. c #5CAEF1",
"I. c #61A6E4",
"U. c #63A9E7",
"Y. c #68AAE2",
"T. c #64ABEA",
"R. c #6BAEEC",
"E. c #6CB0EC",
"W. c #7DB4E4",
"Q. c #74B3EC",
"!. c #7AB7EE",
"~. c #7BBBEE",
"^. c #66B1F1",
"/. c #6BB5F3",
"(. c #74B9F3",
"). c #7CBCF3",
"_. c #8E8E8E",
"`. c #979797",
"'. c #A7828D",
"]. c #A78592",
"[. c #A98291",
"{. c #BF9896",
"}. c #AE9AA7",
"|. c #A0A0A0",
" X c #ADA1AD",
".X c #B4ACA5",
"XX c #AFA7B3",
"oX c #B3ABB8",
"OX c #ABB1B6",
"+X c gray75",
"@X c #C5BCB6",
"#X c #90ADC3",
"$X c #9AB7CF",
"%X c #9CB3C7",
"&X c #8AB4D8",
"*X c #97BBD7",
"=X c #A4B4C3",
"-X c #8BBCE3",
";X c #83BCEE",
":X c #89BEEA",
">X c #83B8E4",
",X c #83BCF1",
"<X c #ADC7DF",
"1X c #B6C9D9",
"2X c #87C1EF",
"3X c #8CC2EC",
"4X c #9CC3E4",
"5X c #9FC7E9",
"6X c #97C5EA",
"7X c #85C1F3",
"8X c #8CC4F3",
"9X c #91C7F4",
"0X c #95C9F4",
"qX c #9DCCF4",
"wX c #9DD1F8",
"eX c #A3CDEE",
"rX c #A8CAE7",
"tX c #B1CFE7",
"yX c #BCD8EE",
"uX c #A2CFF3",
"iX c #A5D1F4",
"pX c #ABD4F4",
"aX c #A4D4F9",
"sX c #ABD6FB",
"dX c #B1D6F6",
"fX c #B7DAF7",
"gX c #BBDCF7",
"hX c #B1D9FB",
"jX c #BBDDFB",
"kX c #C5C5C5",
"lX c #C4C2CA",
"zX c #C8C8D2",
"xX c #CFD2DA",
"cX c #D1D2DA",
"vX c #C9D7E2",
"bX c #C8DAE9",
"nX c #C0DEF5",
"mX c #C1DFF8",
"MX c #D6E0E7",
"NX c #C3E2FB",
"BX c #C9E4F9",
"VX c #CFE8FA",
"CX c #C7E1F3",
"ZX c #D3E9FA",
"AX c #DBECFA",
"SX c #EBEBEB",
"DX c #E7E7E7",
"FX c #F2F0EE",
"GX c #E4ECF3",
"HX c #EEF1F5",
"JX c #F3F2F3",
"KX c #FDF5F5",
"LX c #F5F7F8",
"PX c #F6F8FA",
"IX c #FFFFFF",
"UX c None",
/* pixels */
"UXUXUXUXUXUXUXUXUXUXUXUXUXUXUXUXUXUXUXUXUXUXUXUXUXUXUXUXUXUXUXUXUXUXUXUXUXUXUXUXUXUXUXUXUXUXUXUX",
"UXUXUXUXUXUXUXUXUXUXUXUXUXUXUXUXUXUXUXUXUXUXUXUXUXUXUXUXUXUXUXUXUXUXUXUXUXUXUXUXUXUXUXUXUXUXUXUX",
"UXUXUXUXUXUXUXUXUXUXUXUXUXUXUXUXUXUXUXUXUXUXUXUXUXUXUXUXUXUXUXUXUXUXUXUXUXUXUXUXUXUXUXUXUXUXUXUX",
"UXUXUXUXl.W.;X,X,X,X,X,X,X,X,X,X:X,X,X,X,X,X,X,X,X,X,X,X,X,X,X:X,X,X,X,X,X,X,X,X;X;X>Xl.UXUXUXUX",
"UXUXUX+.Q.R.R.E.R.E.R.E.Q.E.E.R.Q.E.E.E.E./.Q.R.Q.E.E.E.Q.E.E.E.R./.E.E.E.E.R.R.E.E.E.(.+.UXUXUX",
"UXUXUXv.R.R.R.R.^.R.R.E.R.E.E.Q.E.E.E.R.E.E.E.E.R.E.E.E.Q.E.R.Q.R.R.E.E.E.R.E.R.R.R.T.R.v.UXUXUX",
"UXUXUX).T.R.^.T.R.T.R.R.R.E.R.R.E.R.E.R.E.E.R.R.Q.R.R./.E.R.R.R.E.Q.E.R.R.R.R.T.R.R.R.R.).UXUXUX",
"UXUXUX!.T.R.T.T.R.R.R.R.R.R.R.R.E.R.R.Q.E.R.R.E.R.R.R.E.R.E.R.E.E.R.R.R.^.R.R.R.T.T.T.T.!.UXUXUX",
"UXUXUX!.T.T.T.T.T.R.R.T.R.R.R.R.R.R.Y.R.R.R.R.R.R.R.R.R.R.R.R.R.R.R.R.R.R.U.T.T.R.T.T.G.!.UXUXUX",
"UXUXUXQ.F.T.T.T.T.R.R.R.R.R.R.R.R.R.R.R.R.R.R.R.R.R.R.R.R.R.R.R.R.R.R.R.R.R.R.U.T.F.T.T.Q.UXUXUX",
"UXUXUXQ.G.G.G.T.T.R.T.T.R.R.R.R.R.w.8.R.R.R.R.R.R.R.R.R.I.$.e.R.R.R.R.R.R.R.T.T.F.T.F.G.Q.UXUXUX",
"UXUXUXE.F.F.G.G.U.T.T.R.R.U.R.g.w.:X0Xr.z.Y.R.R.R.R.R.h.8.).Q.w.h.R.R.U.U.R.U.T.F.F.F.A.Q.UXUXUX",
"UXUXUXE.A.A.F.G.U.U.T.R.T.I.8.U.,X9X0XqXk.f.R.R.T.T.g.u.(.).,X,Xc.q.I.R.U.U.T.T.F.G.F.F.E.UXUXUX",
"UXUXUXR.A.A.A.F.F.T.U.T.q.e.(.,X8X9X0XqXuXv.w.U.U.w.a.(.(.).,X,X8X8Xy.e.U.T.G.G.F.F.A.A.E.UXUXUX",
"UXUXUXR.Z.D.A.F.F.T.g.! T.(.).,X8X8X0XqXuXpX-X8.8.B././.(.).,X,X8X0X0X:X0.j.F.A.A.A.D.B.E.UXUXUX",
"UXUXUXR.Z.Z.Z.A.A.! s.^./.(.).,X,X8X9XqXuXpXdX-XI.^././.(.).,X8X,X0X0XqXuXv.q.A.A.A.Z.Z.T.UXUXUX",
"UXUXUXT.B.D.Z.Z.Z.0.&.^./.(.).7X8X9X0XqXuXeX4XAXsX:X/.(.(.).,X,X8X9X0XwXuXk.r.A.Z.Z.Z.B.T.UXUXUX",
"UXUXUXT.B.B.B.Z.Z.A.r.} ^.(.).).,X9X9XqX-XmXZXAXsXhXsX>X(.).,X,X8X9X0X0XX.r.z.Z.Z.Z.N.B.U.UXUXUX",
"UXUXUXF.N.N.B.B.Z.Z.g.y.} R.~.).,X8X:X5XBXVXAXAXsXhXfXjXeX,X,X7X8X9X3X} t.g.Z.Z.Z.Z.N.N.U.UXUXUX",
"UXUXUXA.N.B.B.B.Z.Z.Z.g.r.} Y.2X,X>XjXNXBXVXZXAXsXhXjXjXNXBX0X8X8Xn.} y.g.Z.Z.Z.N.N.N.N.A.UXUXUX",
"UXUXUXA.N.N.N.N.Z.Z.Z.B.g.t.} z.eXjXjXmXBXVXZXAXaXhXjXmXNXBXZXCXn.} r.B.B.B.B.B.N.N.N.M.A.UXUXUX",
"UXUXUXA.M.M.M.N.d.V.d.B.d.9.&.P.P.uXjXmXBXVXAXAXsXhXjXjXBXBXgX).7Xr.0.d.B.B.B.V.N.N.M.N.A.UXUXUX",
"UXUXUXZ.m.M.M.M.M.B.B.d.} p./.P.J.L.,XmXBXVXAXAXsXhXjXjXNX).T.E.).0Xc.} g.d.V.d.N.M.m.m.Z.UXUXUX",
"UXUXUXB.p.s.N.s.M.d.a.R C.P./.P.J.K.^.(.sXVXZXAXsXhXfX9XH.H.G.E.7X0XwX3X} a.s.s.M.M.m.m.B.UXUXUX",
"UXUXUXB.5.m.m.m.s.q.E C.L.P.^.P.C.L.H.^.(.0XVXbXwXuXK.7.V.D.S.E.).0XwXaXaXX.i.a.m.m.p.6.B.UXUXUX",
"UXUXUXd.5.p.5.m.i.P 7.J.P.P.^.P.C.L.P.^.(.~.8XVX2X6.6.M.V.H.G.E.).wXwXaXhXpX} i.p.m.5.5.B.UXUXUX",
"UXUXUXN.5.5.6.p.i. .K <.L.P./.P.C.L.P./.(.~.8XmXT.7.M.M.V.H.G.E.).0XwXaXn. . .<.m.5.5.5.s.UXUXUX",
"UXUXUXN.4.5.5.5.5.<.X.I Q H.^.P.C.L.P./.~.2XnXAX8X~.C.V.V.H.S./.).0X3X .I ..3.<.5.5.5.2.N.UXUXUX",
"UXUXUXs.4.4.5.4.5.5.5.9. .H i.P.J.L.P.(.7XgXZXAX3X0X2XD.H.H.^.E.~.&X%XxXHXGXbX4Xc.2.4.2.M.UXUXUX",
"UXUXUXs.1.1.4.4.4.5.5.5.i.} I g.K.P.^.7XgXBXVXAX9X0XuXqXY.T.E.n.bXIXIXIXIXIXIXIXIXrX<.1.p.UXUXUX",
"UXUXUXm.>.4.1.1.5.5.5.5.5.<.} y.wX).).fXmXBXZXAX9X0XuXiXiX~.rXLXIXJX X'.h d ].XXLXIXGXf.p.UXUXUX",
"UXUXUX6.>.>.1.1.1.2.4.2.4.4.&.^ o.iXdXgXmXBXZXAX3X0XuXiXpXtXLXPXlXg C A A A A B d xXIXGXi.UXUXUX",
"UXUXUX5.>.>.>.4.>.4.4.4.4.4.4.&.T G 4XfXmXBXVXAX9X0XuXuXeXMXIXlXb V Z Z KXIXS Z Z i xXIX<XUXUXUX",
"UXUXUX4.:.:.>.>.>.>.>.4.4.>.1.4.%.W F x.nXBXVXAX9X6XqXeX#XIXJXa N V V V KXIXA V V N d PXIX; UXUX",
"UXUXUX2.;.:.:.>.>.>.>.4.1.1.1.>.1.3.$.G ( yXZXAX0X0X6X^ =XIX}.v M M M M KXIXZ M M M v oXIX|.UXUX",
"UXUXUX1.;.;.;.;.>.>.>.>.>.>.>.>.>.-.:.,.U D *XAX0Xb.D L vXIX{ n m m m m KXIXV m m m c ].IXkXUXUX",
"UXUXUX1.*.*.*.*.*.:.:.:.:.:.:.:.;.:.>.:.,.Q F | ( F Q ] LXIXy n c c c c KXIXN c c c c a IXSXUXUX",
"UXUXUX>.*.@.@.*.*.*.*.:.:.:.:.:.:.:.:.;.;.=.] L L ] =.[ LXIXy z z z z z KXIXm z z z z a IXSXUXUX",
"UXUXUX:.' @.' @.@.@.@.*.@.*.*.*.*.*.*.*.*.*.*._ ' *.*._ vXIXf l l l l l KXIXc l l l l ].IXkXUXUX",
"UXUXUX:.' ' @.` @.@.@.@.@.@.@.@.@.@.@.*.@.@.@.*.*.*.' _ $XIX}.q k k k k k k k k k k q oXIX`.UXUX",
"UXUXUX~ ` ` ` ' ` ' ' ' ' @.` ' ' ' ' ' ' ' ' ' ' ' ' ` O.IXHXr w w w w KXIXz q q q u LXIX- UXUX",
"UXUXUX> @.` ` ` ` ` ` ` ` ` ` ` ` ` ' ` ` ` ` ` ` ` ' ` J 1XIXlX< 0 9 9 KXIXk 0 9 7 xXIXOXUXUXUX",
"UXUXUXo , ! :.:.:.:.>.>.-.>.1.>.-.2.-.1.2.3.2.2.3.2.1.1.,.T HXIXzXr < 1 1 1 9 < t cXIXDXo UXUXUX",
"UXUXUX. + $ % & * * 2 2 3 3 3 3 3 5 5 5 5 5 6 6 6 6 6 5 5 2 p FXIXJX{.s 8 e s {.PXIXDX: X UXUXUX",
"UXUXUX  . O $ @ # # * * * * * 2 3 2 3 3 3 4 4 5 5 5 3 3 3 3 # $ @XIXIXIXIXIXIXIXIX.Xo .   UXUXUX",
"UXUXUXUXUX                                                        - _.kXJXSX+X_.=     UXUXUXUXUX",
"UXUXUXUXUXUXUXUXUXUXUXUXUXUXUXUXUXUXUXUXUXUXUXUXUXUXUXUXUXUXUXUXUXUXUXUXUXUXUXUXUXUXUXUXUXUXUXUX",
"UXUXUXUXUXUXUXUXUXUXUXUXUXUXUXUXUXUXUXUXUXUXUXUXUXUXUXUXUXUXUXUXUXUXUXUXUXUXUXUXUXUXUXUXUXUXUXUX"
};
