/* XPM */
static char *desktop[] = {
/* columns rows colors chars-per-pixel */
"32 32 84 1 ",
"  c #000000",
". c #0C0C0C",
"X c #1E150E",
"o c gray7",
"O c #191919",
"+ c #181E28",
"@ c #1A2331",
"# c #242424",
"$ c #2C2C2C",
"% c #373737",
"& c #3C3C3C",
"* c #4A362B",
"= c #583E2A",
"- c #735033",
"; c #7C5533",
": c #2E3B4D",
"> c #2A4570",
", c #2D4872",
"< c #324D74",
"1 c #3A5277",
"2 c #3E5579",
"3 c #464646",
"4 c #494949",
"5 c #505050",
"6 c #55505D",
"7 c #404A68",
"8 c #4C526E",
"9 c #455A7B",
"0 c #485D7D",
"q c #515771",
"w c #555B74",
"e c #585D76",
"r c #5A5F78",
"t c #5D627A",
"y c gray42",
"u c #62647D",
"i c #815734",
"p c #865A36",
"a c #8C5D37",
"s c #8F6038",
"d c #93613A",
"f c #2B4783",
"g c #2B4A86",
"h c #2E4D8A",
"j c #334E85",
"k c #304F8C",
"l c #32528E",
"z c #335692",
"x c #365996",
"c c #395A96",
"v c #365B99",
"b c #395D9B",
"n c #3C619E",
"m c #3D64A2",
"M c #3E68A8",
"N c #40639F",
"B c #4166A3",
"V c #4369A6",
"C c #486CA6",
"Z c #446DAC",
"A c #496FAB",
"S c #4770AF",
"D c #4B72AD",
"F c #4771B0",
"G c #4C74B1",
"H c #5077B3",
"J c #537AB4",
"K c #597EB6",
"L c #5B7FB8",
"P c #5C80B7",
"I c #5E82B8",
"U c #6285BA",
"Y c #6788BB",
"T c #6C8CBE",
"R c #708FBF",
"E c #6F8FC0",
"W c #708FC0",
"Q c #7392C2",
"! c #7997C5",
"~ c #7B99C6",
"^ c #7D9BC9",
"/ c #809CC7",
"( c #819DCA",
") c None",
/* pixels */
"))))))))))))))))))))))))))))))))",
"))))))))))))))))))))))))))))))))",
")):+........................+:))",
"))+$y4      5%3 %333       44+))",
"))..oo      #$# O##o       .#.))",
"))@>,,<112999900009999221<<,,@))",
"))AZSGJLIYTTTEQQQQEETTULLHGFZA))",
"))GSSHLPUTTEQQQQ!Q!EETTUPLHFZG))",
"))GSGJPIYTRRQ~!~!!!QQRTYPPJGSG))",
"))GSGKIUYQRQQ^~^^!~Q!RTTUPHHSG))",
"))GFHLUITQQQ!(~((~^!!RRTUIJHFG))",
"))GFJKUUTQRQ!(~^^~^Q!QRTUPKHGG))",
"))HSJPUITRRQQ(~^^!^Q!QRRIUKHSG))",
"))DSHLIPTQRQQ(!~^!^E!RTRPIHHFS))",
"))GSJKUKYQTRQ^Q!~E~E!RYTPPJHSS))",
"))DSHKUKURTTQ(QQ!E~EQTYTKIHGSA))",
"))AZHJIJITUYT~EQ!T!YQYUYHPGGZA))",
"))AZHHPHLTUUTQTEEYQIRIIYHJFDZV))",
"))CVFGJFJULLUWUYTITPYIKPFHZSVB))",
"))VmASHZGIJJJTKIIJYJIJHLSFZZmB))",
"))BnVAGVFJGHJIJJPHPGPGDHZAMBmn))",
"))NbNVCMSGSSFKHHJFJFHFZSMZnmnn))",
"))ccbBVmVAVZZHZFFZGMFZVZmmnbcc))",
"))czcbmbBVMMVSZVAMZMZVMBbnbczc))",
"))llccbbbBmmmVmMMmVmMmnnvbxlll))",
"))lkllclvbvbbBmbnbmbnbvxzzllkl))",
"))jgkkllxxvvvbbvvvbvxxxxllkhgj))",
"))7ffgkklllllxxxxzxlzllkkhggg7))",
"))*68qqweerrttuuuuttteeeqqq86*))",
"))X=--;;ippassddddssaaii;;;-=X))",
"))))                        ))))",
"))))))))))))))))))))))))))))))))"
};
