/* XPM */
static char *x[] = {
/* columns rows colors chars-per-pixel */
"22 22 121 2 ",
"   c black",
".  c #082E4F",
"X  c #36597A",
"o  c #3F668A",
"O  c #3A6C96",
"+  c #366E9E",
"@  c #3D6E99",
"#  c #3C709A",
"$  c #146AB5",
"%  c #186DB6",
"&  c #396FA0",
"*  c #2972AF",
"=  c #3871A4",
"-  c #2470B0",
";  c #2577BC",
":  c #2578BF",
">  c #2A7ABC",
",  c #3076B0",
"<  c #377DB9",
"1  c #397EB9",
"2  c #406689",
"3  c #436A8C",
"4  c #427098",
"5  c #497DAC",
"6  c #177DD3",
"7  c #1A7FD5",
"8  c #277EC5",
"9  c #3580BF",
"0  c #3D83BD",
"q  c #4281B4",
"w  c #4281B8",
"e  c #4388BF",
"r  c #6295BD",
"t  c #1E81D5",
"y  c #3480C0",
"u  c #3C86C4",
"i  c #3C8ACC",
"p  c #2484D6",
"a  c #2986D6",
"s  c #2F8AD7",
"d  c #2585D8",
"f  c #2D8AD9",
"g  c #3C8DD3",
"h  c #348DDA",
"j  c #3C90D6",
"k  c #3790DC",
"l  c #3C92DC",
"z  c #4087C4",
"x  c #4389C2",
"c  c #4A8AC1",
"v  c #478ECC",
"b  c #4A8FCB",
"n  c #4D92CD",
"m  c #5496CC",
"M  c #4790D1",
"N  c #4C94D3",
"B  c #4296DE",
"V  c #4996D9",
"C  c #4E98D8",
"Z  c #5A9BD6",
"A  c #519BDB",
"S  c #6598C3",
"D  c #629DCB",
"F  c #609FD2",
"G  c #5BA2DF",
"H  c #69A3D1",
"J  c #62A4DF",
"K  c #78B1DE",
"L  c #469BE2",
"P  c #4D9CE3",
"I  c #479FE8",
"U  c #509FE2",
"Y  c #4DA1E7",
"T  c #56A2E5",
"R  c #59A3E3",
"E  c #5DABEA",
"W  c #53A9F1",
"Q  c #61A6E3",
"!  c #67AAE5",
"~  c #63ABE9",
"^  c #6BAEEA",
"/  c #6EB1ED",
"(  c #7CB2E0",
")  c #72B3ED",
"_  c #75B9EE",
"`  c #7DB9EC",
"'  c #65B2F1",
"]  c #6DB5F3",
"[  c #76B9F4",
"{  c #7EBEF4",
"}  c #8EBBDF",
"|  c #94BEDF",
" . c #83B7E2",
".. c #8FBFE6",
"X. c #85BDED",
"o. c #8ABDEC",
"O. c #90BEE3",
"+. c #83BFF2",
"@. c #8FC3EA",
"#. c #9BC2E3",
"$. c #93C2EB",
"%. c #86C3F2",
"&. c #8CC4F3",
"*. c #97C7F2",
"=. c #95C9F4",
"-. c #9ACAF3",
";. c #A2C8E6",
":. c #B4D3EB",
">. c #A0CFF6",
",. c #A5D2F5",
"<. c #ABD4F5",
"1. c #A7D7F9",
"2. c #A9D4F8",
"3. c #B9DBF7",
"4. c #BADDFA",
"5. c #C4DFF5",
"6. c #C4E2F9",
"7. c #CDE7FA",
"8. c #D6E9FA",
"9. c #D9EDFA",
"0. c None",
/* pixels */
"0.0.0.0.0.0.0.0.0.0.0.0.0.0.0.0.0.0.0.0.0.0.",
"0.0.$.*.*.*.*.*.*.*.*.*.*.*.*.*.*.*.*.$.0.0.",
"0.o._ / ) / ) ) ) ) ) ) ) ) ) ) / / / ) o.0.",
"0.o.~ ^ ^ ) Q u b ) ) ) ) b u Q ) / / ^ o.0.",
"0.X.~ / ! x m &.( x ) ) u G { m x / ^ ~ X.0.",
"0.X.~ N < / +.&.*.$.w 1 E [ { &.%.c M ~ ` 0.",
"0.) C i ] [ +.&.-.<.O.! ] [ { &.&.-.H N ) 0.",
"0./ R 1 A [ +.&.$.;.8.2.*.) { %.*.K 1 G / 0.",
"0.! T Z 0 n %. .4.7.9.2.4.6...%.F w Z R ! 0.",
"0.E U T Z * E 1.6.7.9.2.4.6.6.X., Z T Y Q 0.",
"0.R L V > E W W &.7.9.2.4.%.~ _ &.x V U T 0.",
"0.U h y W ' W W ] %.:.` I Y E _ =.1.D j U 0.",
"0.L g - L ' W W ' { <.T L Y E _ -.@.0 i L 0.",
"0.l j 5 + u W W ] ,.9.=.] T E _ m + 5 j B 0.",
"0.k k B c 4 J ] >.5.8.=.-.&.` @.@ c l k k 0.",
"0.f h l B M O | 3.6.8.=.,.<.#.O v L l h f 0.",
"0.d f k l B w 2 r 5.8.=.-.S o q B l k f d 0.",
"0.p d f k k l i 3 O :...@ 3 i l l h f p p 0.",
"0.7 t d a f f h s & X X # s f h f d p t 7 0.",
"0.$ 6 7 t t t t p p : ; p t t t t t 7 6 $ 0.",
"0.. % p d a a f f h h h h f f f a p p % . 0.",
"0.0.0.                                0.0.0."
};
