/* XPM */
static char *desktop[] = {
/* columns rows colors chars-per-pixel */
"48 48 91 1 ",
"  c #000000",
". c gray4",
"X c #131313",
"o c #1D1D1D",
"O c #2A1E13",
"+ c #242424",
"@ c #20262E",
"# c #2E2E2E",
"$ c #323232",
"% c #3B3B3B",
"& c #463020",
"* c #573E2A",
"= c #583E2A",
"- c #62442D",
"; c #714E2F",
": c #74502F",
"> c #6E4D33",
", c #724F33",
"< c #775131",
"1 c #7B5332",
"2 c #323C4D",
"3 c #2D3D56",
"4 c #364152",
"5 c #3E4E78",
"6 c gray27",
"7 c #4C474F",
"8 c gray31",
"9 c #514C53",
"0 c #525252",
"q c #585858",
"w c #45537A",
"e c #646464",
"r c #6D6D6D",
"t c #727272",
"y c #815634",
"u c #855935",
"i c #8A5C36",
"p c #8E5F38",
"a c #936139",
"s c #2A4783",
"d c #2C4A85",
"f c #2E4D8A",
"g c #304F8C",
"h c #2F508D",
"j c #32518D",
"k c #3A568D",
"l c #335592",
"z c #355996",
"x c #3C5A93",
"c c #365B9A",
"v c #3A5E9B",
"b c #3C619E",
"n c #3C64A3",
"m c #3E67A8",
"M c #3F69A9",
"N c #425E95",
"B c #456197",
"V c #43639C",
"C c #49669C",
"Z c #4A689C",
"A c #4166A2",
"S c #4469A5",
"D c #496CA6",
"F c #436DAC",
"G c #496EA9",
"H c #4771AF",
"J c #4C72AD",
"K c #5175AE",
"L c #4771B0",
"P c #4C74B1",
"I c #5077B2",
"U c #547AB4",
"Y c #5A7EB6",
"T c #5C81B7",
"R c #5E82B8",
"E c #6285BA",
"W c #6788BC",
"Q c #6C8CBD",
"! c #708FBF",
"~ c #7190BF",
"^ c #6F8FC0",
"/ c #708FC0",
"( c #7393C2",
") c #7997C5",
"_ c #7B99C6",
"` c #7D9BC9",
"' c #B4B4B4",
"] c #829EC7",
"[ c #829ECA",
"{ c #83A0CD",
"} c None",
/* pixels */
"}}}}}}}}}}}}}}}}}}}}}}}}}}}}}}}}}}}}}}}}}}}}}}}}",
"}}}}}}}}}}}}}}}}}}}}}}}}}}}}}}}}}}}}}}}}}}}}}}}}",
"}}}}}}}}}}}}}}}}}}}}}}}}}}}}}}}}}}}}}}}}}}}}}}}}",
"}}}}4@XXXXXXXXXXXXXXXXXXXXXXXXXXXXXXXXXXXX@4}}}}",
"}}}2.$##$         $.    o#.+o%           +o.2}}}",
"}}}@ tttt         e8%r+.q$6+60           '' @}}}",
"}}}X $$#$         6#%$o +%##++           %q X}}}",
"}}}X                                        X}}}",
"}}}3nFFLPIUUTTEER^^^^^^^!!^^QWWWEETTUUPPLFMn3}}}",
"}}}KMFFPPUUTTEEW^^^^^^^((^^^^!!!WWETYUUPLLFMK}}}",
"}}}UMFLPIUURRWQW^^^^(^((((((/^!!WWEEYYUKPLFFU}}}",
"}}}UFLLPUYYREWQQ^^^()))()(()(^(~!WWETYYUPLFFU}}}",
"}}}UFHPPURTRE^!Q^^()`()(`((`((((!QWWRTTUIPLFU}}}",
"}}}UFHPITRRRR^~!^^()`)```))`((((Q~WQRTRUIPLFU}}}",
"}}}UFLIITEREW!(!(((```````)`(()(^~W^RRRUIILFU}}}",
"}}}ULLUIUETRW^(!(^(```{`````)())^^Q^RRRTIIPFU}}}",
"}}}ILFUITWTEW~~!)^(`{```{```)())!~W~ETEUIUJFU}}}",
"}}}ULLUITETRQ~(!(((``)``{`){)()`!~W(ETEYIUPFU}}}",
"}}}UPLUIEWTEW~)!)^(`[)`_{)){)^))Q~W~RTEYPULFI}}}",
"}}}ILLYIRWTRW!(Q(((`[)`_`))`(^))!(W(RYEYIUPFU}}}",
"}}}ULLYPRWTRW!(!((~]](`)`((]^^``Q~E^RUEUPUPFI}}}",
"}}}PPFUPRQYYEQ(Q(!!_]/))`((]^^))QQE(RI^UPULFI}}}",
"}}}PPFYPRWUYE!(W~!!_]/_(](^]^^))W^R(YU^PLULMP}}}",
"}}}JPMULRWIYRW(E~WQ_]^)(`^!]!W()E^R^UIRULULMP}}}",
"}}}JJFUFR^LURW^R~EQ)]Q)~_!Q]QW~~R^Y^UIRUFILmJ}}}",
"}}}JJSYFY^PIRE^R!EE)]W(()WW]EE~~REU^IPRPFUHmJ}}}",
"}}}GGmUFYELIYR^YWTE~)E(W)EE)EE~~YRI^IPRPFIDnD}}}",
"}}}GGmIMURJLUREYEYY!~RWW!RR)TYWQURP^LLYFFPGnD}}}",
"}}}DSnJmIYHHIYRIRYYW/YWR^YY/YYEEIYPRFFIHmJSnD}}}",
"}}}DSnJnIUFFIURIYIIEWUERWUYWUITEIULRFFIFnGmvS}}}",
"}}}AAvGnJUMFLIYLUPITWIYUEIIWIIYYLIFYFFKSnSncS}}}",
"}}}AbvSnGPmMLLUFILJYELYURLPELLUULLMUmmJnnSncA}}}",
"}}}VvcAbDJnmSHPFPFLUYLIPULLYLFIIFLMInnDnbnbcb}}}",
"}}}VvzVvAGbnMFJMHMMIIFPLUFFUFMLPMFmJnnFnvbczV}}}",
"}}}vzzbzADvnnSDmHMMJIMLFLMFPMMHJmSnGbvSbzbzlv}}}",
"}}}xllvzvAvvnASnSnnHPmFSJmMLmnSDnnbSbcbczxzjx}}}",
"}}}xjjzlvbccnbSbnnnSDnSnSmnSnnSSvncmccbzlzjhx}}}",
"}}}khhljzvczvvncbbvnSnnnnnnAvbbncbcbzzxzjljhk}}}",
"}}}kffhhkzllzxvcbcvbnvnvnbcAccnbcczxllzjjjfdk}}}",
"}}}kddfhkljjzzzzczzvbcvvvzcncczvzzzzlhlhffdsk}}}",
"}}}5sdddfhfjjlzlllzzvzzzzzzvlzzzlljjhghgddds5}}}",
"}}}7dssddffdhjjjlllllllzlllljllljjjfgffdddsd7}}}",
"}}}&9wkkkxNNNNBVBBBCVVZZZZVZVCBBBBNNxxxklkw9&}}}",
"}}}O-,,<111yyyuuiippaaaaaaapppiiiuuyyy11<,>-O}}}",
"}}} O=>;::11111yyuuuiupppiuuuuuy11111<::;>=O }}}",
"}}}}}                                      }}}}}",
"}}}}}}}}}}}}}}}}}}}}}}}}}}}}}}}}}}}}}}}}}}}}}}}}",
"}}}}}}}}}}}}}}}}}}}}}}}}}}}}}}}}}}}}}}}}}}}}}}}}"
};
