/* XPM */
static char *desktop[] = {
/* columns rows colors chars-per-pixel */
"24 24 85 1 ",
"  c #010101",
". c #0F0F0F",
"X c #151515",
"o c #1B1B1B",
"O c #0D142A",
"+ c #272727",
"@ c #2A2A2A",
"# c #313131",
"$ c #353940",
"% c #393D43",
"& c #1D3160",
"* c #1F366F",
"= c #273967",
"- c #20376F",
"; c #213770",
": c #233B74",
"> c #253F78",
", c #3E4759",
"< c #25407B",
"1 c #2A447D",
"2 c #34497D",
"3 c #394D7F",
"4 c #444444",
"5 c gray30",
"6 c #585858",
"7 c #646464",
"8 c #777777",
"9 c #2A4782",
"0 c #2B4984",
"q c #2E4E8B",
"w c #354E84",
"e c #3A4E80",
"r c #324E88",
"t c #33528C",
"y c #3B558B",
"u c #335593",
"i c #395790",
"p c #355996",
"a c #3C5B94",
"s c #365A98",
"d c #385D9C",
"f c #3C609E",
"g c #3C64A3",
"h c #3F69A9",
"j c #415584",
"k c #455887",
"l c #475B8A",
"z c #4A5E8C",
"x c #425F96",
"c c #415F98",
"v c #40639F",
"b c #48679E",
"n c #4B699E",
"m c #4166A3",
"M c #476AA3",
"N c #4D6DA3",
"B c #426CAC",
"V c #496EA8",
"C c #4770AF",
"Z c #4C72AD",
"A c #5372A7",
"S c #5375AB",
"D c #5977AB",
"F c #5E7CAD",
"G c #4D75B1",
"H c #5077B1",
"J c #557BB5",
"K c #5A7EB5",
"L c #627FAF",
"P c #5B80B7",
"I c #5D81B8",
"U c #6481B2",
"Y c #6385BA",
"T c #6688BC",
"R c #6C8CBD",
"E c #7190BF",
"W c #6F8FC0",
"Q c #708FC0",
"! c #7392C2",
"~ c #7996C4",
"^ c #7B99C6",
"/ c #7B9BC9",
"( c #809DC9",
") c #82A0CC",
"_ c None",
/* pixels */
"________________________",
"________________________",
"__,%################%,__",
"__$.      .XXo     ..$__",
"__@ 56    #44@    78 @__",
"__+                X +__",
"__UfgCHKTRWQQQRYKGCmgL__",
"__LgBHHYWWQ~~!QTYJCBgL__",
"__FmhJJT!Q~)/~WRRJHCgF__",
"__DmhKJR~Q!)//!RRJGGgD__",
"__AmhIHT~EQ)~^!RWJGHfA__",
"__NghIHT~RW^W!EIWHZHfN__",
"__MvgPCIQYY/TETKRBCSdb__",
"__xfdYBJWJJWPTPHRhBSpc__",
"__iapFgHTCGTHIGBTgmAui__",
"__riuAdVPhhPhGBhFddbqr__",
"__1rqnubAggZgMgdApiv91__",
"__>99xqanppbsfsubqry1>__",
"__*<>y9txquatatqa992;*__",
"__*;;2<0r90t0q09w<<1**__",
"__&;*>;>1><1<1<>1;->;&__",
"__O=2e3jjklzzlkjj332=O__",
"____                ____",
"________________________"
};
