/* XPM */
static char *top[] = {
/* columns rows colors chars-per-pixel */
"32 32 165 2",
"   c #000000",
".  c #242424",
"X  c #303030",
"o  c #3F3F3F",
"O  c #404040",
"+  c #414141",
"@  c #434343",
"#  c #444444",
"$  c #454545",
"%  c #464646",
"&  c #474747",
"*  c #484848",
"=  c #4A4A4A",
"-  c #4B4B4B",
";  c #4C4C4C",
":  c #4D4D4D",
">  c #4E4E4E",
",  c #4F4F4F",
"<  c #505050",
"1  c #515151",
"2  c #525252",
"3  c #535353",
"4  c #545454",
"5  c #555555",
"6  c #565656",
"7  c #575757",
"8  c #585858",
"9  c #595959",
"0  c #5A5A5A",
"q  c #5B5B5B",
"w  c #5C5C5C",
"e  c #5D5D5D",
"r  c #5E5E5E",
"t  c #5F5F5F",
"y  c #606060",
"u  c #616161",
"i  c #626262",
"p  c #636363",
"a  c #646464",
"s  c #676767",
"d  c #686868",
"f  c #6A6A6A",
"g  c #6B6B6B",
"h  c #6C6C6C",
"j  c #6F6F6F",
"k  c #797979",
"l  c #7B7B7B",
"z  c #7D7D7D",
"x  c #7E7E7E",
"c  c #7F7F7F",
"v  c #808080",
"b  c #818181",
"n  c #828282",
"m  c #838383",
"M  c #848484",
"N  c #858585",
"B  c #868686",
"V  c #878787",
"C  c #888888",
"Z  c #898989",
"A  c #8A8A8A",
"S  c #8B8B8B",
"D  c #8C8C8C",
"F  c #8D8D8D",
"G  c #8E8E8E",
"H  c #8F8F8F",
"J  c #909090",
"K  c #919191",
"L  c #929292",
"P  c #939393",
"I  c #949494",
"U  c #959595",
"Y  c #969696",
"T  c #979797",
"R  c #989898",
"E  c #999999",
"W  c #9A9A9A",
"Q  c #9B9B9B",
"!  c #9C9C9C",
"~  c #9D9D9D",
"^  c #9E9E9E",
"/  c #9F9F9F",
"(  c #A0A0A0",
")  c #A1A1A1",
"_  c #A2A2A2",
"`  c #A3A3A3",
"'  c #A4A4A4",
"]  c #A6A6A6",
"[  c #A7A7A7",
"{  c #A8A8A8",
"}  c #A9A9A9",
"|  c #AAAAAA",
" . c #ABABAB",
".. c #ACACAC",
"X. c #ADADAD",
"o. c #AEAEAE",
"O. c #AFAFAF",
"+. c #B0B0B0",
"@. c #B1B1B1",
"#. c #B2B2B2",
"$. c #B3B3B3",
"%. c #B4B4B4",
"&. c #B5B5B5",
"*. c #B6B6B6",
"=. c #B7B7B7",
"-. c #B8B8B8",
";. c #B9B9B9",
":. c #BABABA",
">. c #BBBBBB",
",. c #BCBCBC",
"<. c #BDBDBD",
"1. c #BEBEBE",
"2. c #BFBFBF",
"3. c #C0C0C0",
"4. c #C1C1C1",
"5. c #C2C2C2",
"6. c #C3C3C3",
"7. c #C4C4C4",
"8. c #C5C5C5",
"9. c #C6C6C6",
"0. c #C7C7C7",
"q. c #C8C8C8",
"w. c #C9C9C9",
"e. c #CACACA",
"r. c #CBCBCB",
"t. c #CCCCCC",
"y. c #CDCDCD",
"u. c #CECECE",
"i. c #CFCFCF",
"p. c #D0D0D0",
"a. c #D1D1D1",
"s. c #D2D2D2",
"d. c #D3D3D3",
"f. c #D4D4D4",
"g. c #D5D5D5",
"h. c #D6D6D6",
"j. c #D7D7D7",
"k. c #D8D8D8",
"l. c #D9D9D9",
"z. c #DADADA",
"x. c #DBDBDB",
"c. c #DCDCDC",
"v. c #DDDDDD",
"b. c #DEDEDE",
"n. c #DFDFDF",
"m. c #E0E0E0",
"M. c #E1E1E1",
"N. c #E2E2E2",
"B. c #E3E3E3",
"V. c #E4E4E4",
"C. c #E5E5E5",
"Z. c #E6E6E6",
"A. c #E7E7E7",
"S. c #E8E8E8",
"D. c #E9E9E9",
"F. c #EAEAEA",
"G. c #EBEBEB",
"H. c #ECECEC",
"J. c #EDEDED",
"K. c #EEEEEE",
"L. c #EFEFEF",
"P. c #F0F0F0",
"I. c #F1F1F1",
"U. c #F2F2F2",
"Y. c None",
/* pixels */
"Y.Y.Y.Y.Y.Y.Y.Y.Y.Y.Y.Y.Y.Y.Y.Y.Y.Y.Y.Y.Y.Y.Y.Y.Y.Y.Y.Y.Y.Y.Y.Y.",
"Y.Y.Y.Y.Y.Y.Y.Y.Y.Y.Y.Y.Y.Y.Y.Y.Y.Y.Y.Y.Y.Y.Y.Y.Y.Y.Y.Y.Y.Y.Y.Y.",
"Y.Y.Y.l.C.m.m.c.l.c.c.l.l.h.w.9.9.w.9.9.9.w.9.w.w.i.i.p.i.Y.Y.Y.",
"Y.Y.l.C.c.c.l.h.h.h.h.h.p.w.5.>.>.=.>.>.,.,.>.,.,.9.w.i.p.w.Y.Y.",
"Y.Y.L.C.C.m.l.h.p.h.p.h.p.w.5.' ` =.=.=.=.=.=.=.9.9.w.i.p.h.Y.Y.",
"Y.Y.S.S.S.m.c.l.h.p.p.p.i.w.F X X M $.=.$.$.=.>.9.w.w.i.i.h.Y.Y.",
"Y.Y.S.L.L.S.C.c.h.p.i.i.i.9.f o o a ........>.,.5.w.i.i.i.p.Y.Y.",
"Y.Y.L.S.S.L.S.C.c.p.w.w.w.9...u e / ........>.5.9.w.w.w.w.i.Y.Y.",
"Y.Y.L.S.S.L.L.S.C.l.i.w.w.9.>.$...' ' { ' =.,.5.9.9.9.9.9.i.Y.Y.",
"Y.Y.S.S.L.S.L.L.P.C.h.i.9.9.,.` / ' ' ' ..,.5.9.9.9.9.9.w.w.Y.Y.",
"Y.Y.S.S.S.L.L.L.P.P.C.h.9.5.=.$ $ R / ' >.5.5.9.5.5.9.9.9.i.Y.Y.",
"Y.Y.L.S.S.L.S.L.P.U.P.S.h.,.; @ @ $ R =.5.,.5.,.5.9.9.w.w.h.Y.Y.",
"Y.Y.S.S.S.L.L.L.P.P.P.U.C.6 = = $ $ = =.,.,.5.9.w.p.p.h.h.c.Y.Y.",
"Y.Y.S.S.S.S.S.L.P.P.P.S.u 6 3 ; $ ; ; ; >.i.p.l.c.c.c.m.m.m.Y.Y.",
"Y.Y.C.C.S.S.L.L.P.P.S.u 0 e e 3 = 3 6 6 e m.S.S.L.S.L.C.S.S.Y.Y.",
"Y.Y.C.S.S.L.S.L.P.S.a 0 e e e 6 e u e e e a S.L.L.S.S.S.C.C.Y.Y.",
"Y.Y.C.m.C.C.C.C.c.e 6 0 6 6 3 ; 6 e u u u 0 a C.L.S.S.S.C.C.Y.Y.",
"Y.Y.l.l.l.p.p.w.a 6 6 6 3 f $ 3 3 = c u a u e c S.S.C.C.C.m.Y.Y.",
"Y.Y.w.9.9.,.,.>.` e 6 3 f ` = 3 6 ; ,.v u a h 9.S.S.C.C.m.m.Y.Y.",
"Y.Y.,.=.=.$...{ { R 0 f ` ' = 3 3 ; ..,.c h 9.S.S.S.C.C.m.m.Y.Y.",
"Y.Y.=.{ { { { { ` R ` R ` ' ; 6 3 ; ' ..5.p.C.S.S.C.C.m.m.c.Y.Y.",
"Y.Y.{ ' ' ' ` R I I J / ' ` ; 6 6 ; ` ` { 5.h.m.C.C.m.m.c.c.Y.Y.",
"Y.Y.{ ` ` R I I I J R ` ` / ; 6 6 ; ` ` ` { ,.i.c.m.m.c.c.c.Y.Y.",
"Y.Y.' / R I I J J J / / ` / ; 6 0 ; / / ` ` ..,.w.l.c.c.l.l.Y.Y.",
"Y.Y.` I J J J J J R / / / R c k c c / / / / ` { >.9.p.l.h.h.Y.Y.",
"Y.Y.R J J J J J I R R R / J M M v M I R R R R ' ' =.5.9.p.h.Y.Y.",
"Y.Y.R F F J F J I R R R I F v v v M I R I R R R ` ' $.>.5.i.Y.Y.",
"Y.Y.k J S F J J I I I I J S v v c M F I I J I I R / ` $.=.J Y.Y.",
"Y.Y.= h v v M M S M S M S M v v M v M S S M S M M S S S k $ Y.Y.",
"Y.Y.. @ $ ; ; ; ; 3 3 3 3 3 6 6 6 3 6 3 3 3 ; 3 ; ; ; = o . Y.Y.",
"Y.Y.Y.Y.                                                Y.Y.Y.Y.",
"Y.Y.Y.Y.Y.Y.Y.Y.Y.Y.Y.Y.Y.Y.Y.Y.Y.Y.Y.Y.Y.Y.Y.Y.Y.Y.Y.Y.Y.Y.Y.Y."
};
